<mxfile host="app.diagrams.net" modified="2022-10-13T11:46:48.186Z" agent="5.0 (Windows NT 10.0; Win64; x64) AppleWebKit/537.36 (KHTML, like Gecko) Chrome/106.0.0.0 Safari/537.36" etag="ZPPDZZg0rKXnlCvDFtAh" version="20.3.0" type="github">
  <diagram id="C5RBs43oDa-KdzZeNtuy" name="Page-1">
    <mxGraphModel dx="1022" dy="460" grid="1" gridSize="10" guides="1" tooltips="1" connect="1" arrows="1" fold="1" page="1" pageScale="1" pageWidth="827" pageHeight="1169" math="0" shadow="0">
      <root>
        <mxCell id="WIyWlLk6GJQsqaUBKTNV-0" />
        <mxCell id="WIyWlLk6GJQsqaUBKTNV-1" parent="WIyWlLk6GJQsqaUBKTNV-0" />
        <mxCell id="CNWXucs4_v8PNML2_RBS-0" value="Mulai" style="ellipse;whiteSpace=wrap;html=1;fontStyle=1;fillColor=none;" vertex="1" parent="WIyWlLk6GJQsqaUBKTNV-1">
          <mxGeometry x="340" y="40" width="120" height="50" as="geometry" />
        </mxCell>
        <mxCell id="CNWXucs4_v8PNML2_RBS-1" value="Studi Literatur" style="rounded=0;whiteSpace=wrap;html=1;fontStyle=1;fillColor=none;" vertex="1" parent="WIyWlLk6GJQsqaUBKTNV-1">
          <mxGeometry x="260" y="120" width="280" height="50" as="geometry" />
        </mxCell>
        <mxCell id="CNWXucs4_v8PNML2_RBS-2" style="edgeStyle=orthogonalEdgeStyle;rounded=0;orthogonalLoop=1;jettySize=auto;html=1;exitX=0.5;exitY=1;exitDx=0;exitDy=0;entryX=0.5;entryY=0;entryDx=0;entryDy=0;fontStyle=1;fillColor=none;" edge="1" parent="WIyWlLk6GJQsqaUBKTNV-1" source="CNWXucs4_v8PNML2_RBS-0" target="CNWXucs4_v8PNML2_RBS-1">
          <mxGeometry relative="1" as="geometry" />
        </mxCell>
        <mxCell id="CNWXucs4_v8PNML2_RBS-3" value="Studi Bimbingan" style="rounded=0;whiteSpace=wrap;html=1;fontStyle=1;fillColor=none;" vertex="1" parent="WIyWlLk6GJQsqaUBKTNV-1">
          <mxGeometry x="260" y="200" width="280" height="50" as="geometry" />
        </mxCell>
        <mxCell id="CNWXucs4_v8PNML2_RBS-4" style="edgeStyle=orthogonalEdgeStyle;rounded=0;orthogonalLoop=1;jettySize=auto;html=1;exitX=0.5;exitY=1;exitDx=0;exitDy=0;entryX=0.5;entryY=0;entryDx=0;entryDy=0;fontStyle=1;fillColor=none;" edge="1" parent="WIyWlLk6GJQsqaUBKTNV-1" source="CNWXucs4_v8PNML2_RBS-1" target="CNWXucs4_v8PNML2_RBS-3">
          <mxGeometry relative="1" as="geometry" />
        </mxCell>
        <mxCell id="CNWXucs4_v8PNML2_RBS-8" style="edgeStyle=orthogonalEdgeStyle;rounded=0;orthogonalLoop=1;jettySize=auto;html=1;exitX=0.5;exitY=1;exitDx=0;exitDy=0;" edge="1" parent="WIyWlLk6GJQsqaUBKTNV-1" source="CNWXucs4_v8PNML2_RBS-5" target="CNWXucs4_v8PNML2_RBS-7">
          <mxGeometry relative="1" as="geometry" />
        </mxCell>
        <mxCell id="CNWXucs4_v8PNML2_RBS-5" value="Identifikasi Masalah dan Solusi" style="rounded=0;whiteSpace=wrap;html=1;fontStyle=1;fillColor=none;" vertex="1" parent="WIyWlLk6GJQsqaUBKTNV-1">
          <mxGeometry x="260" y="280" width="280" height="50" as="geometry" />
        </mxCell>
        <mxCell id="CNWXucs4_v8PNML2_RBS-6" style="edgeStyle=orthogonalEdgeStyle;rounded=0;orthogonalLoop=1;jettySize=auto;html=1;exitX=0.5;exitY=1;exitDx=0;exitDy=0;entryX=0.5;entryY=0;entryDx=0;entryDy=0;fontStyle=1;fillColor=none;" edge="1" parent="WIyWlLk6GJQsqaUBKTNV-1" source="CNWXucs4_v8PNML2_RBS-3" target="CNWXucs4_v8PNML2_RBS-5">
          <mxGeometry relative="1" as="geometry" />
        </mxCell>
        <mxCell id="CNWXucs4_v8PNML2_RBS-7" value="A" style="ellipse;whiteSpace=wrap;html=1;aspect=fixed;" vertex="1" parent="WIyWlLk6GJQsqaUBKTNV-1">
          <mxGeometry x="380" y="350" width="40" height="40" as="geometry" />
        </mxCell>
      </root>
    </mxGraphModel>
  </diagram>
</mxfile>
